# xmcd
#
# Track frame offsets:
#	183
#	9830
#	22143
#	38185
#	50348
#	63238
#	77723
#	93910
#	108685
#	122708
#	131865
#	144543
#	156470
#	175960
#	189473
#	202965
#	219388
#	229885
#	240763
#	254040
#
# Disc length: 3594
#
# Revision: 3
# Processed by: cddbd v1.5.1PL0 Copyright (c) Steve Scherf et al.
# Submitted via: EasyCD 2.21 - (C) 1996 Greg Leichner
# Normalized: r1:TDELIM( - ),TSWAP
#
DISCID=190e0814
DTITLE=Various Artist - Country number Ones
DYEAR=1900
DGENRE=
TTITLE0=Waylon Jennings - Theme from the Dukes of Hazzard
TTITLE1=Patsy cline - Crazy
TTITLE2=Kenny Rogers - Lucille
TTITLE3=Dolly Parton - 9-5
TTITLE4=Jim Reeves - Distant Drums
TTITLE5=Glenn Campbell - Rhinestone Cowboy
TTITLE6=Billie Jo Spears - Blanket on the ground
TTITLE7=Alabama - Love in the first degree
TTITLE8=Loretta Lynn - Coal miners Daughter
TTITLE9=Charley Pride - Kiss an angel good morning
TTITLE10=Patsy Cline - I fall to pieces
TTITLE11=Eddy Arnold - Make the world go away
TTITLE12=Kenny Rogers - Coward of the county
TTITLE13=George Hamilton IV - Abilene
TTITLE14=Glen Campbell - Southern nights
TTITLE15=Barbara Mandrell - I was country when country wasn't cool
TTITLE16=Slim Whitman - Rose Marie
TTITLE17=Willie Nelson - Hello walls
TTITLE18=Dolly Parton - Here you come again
TTITLE19=Ed Bruce - You're the best break this heart ever had
EXTD=
EXTT0=
EXTT1=
EXTT2=
EXTT3=
EXTT4=
EXTT5=
EXTT6=
EXTT7=
EXTT8=
EXTT9=
EXTT10=
EXTT11=
EXTT12=
EXTT13=
EXTT14=
EXTT15=
EXTT16=
EXTT17=
EXTT18=
EXTT19=
PLAYORDER=
